<svg width="49" height="49" viewBox="0 0 49 49" fill="none" xmlns="http://www.w3.org/2000/svg">
<circle cx="24.4473" cy="24.084" r="24" fill="#E3E2E2"/>
<g clip-path="url(#clip0_2075_15289)">
<path d="M25.3399 11.0394L36.6733 17.3727C37.006 17.5388 37.2858 17.7944 37.4813 18.1107C37.6768 18.427 37.7802 18.7915 37.7799 19.1634V21.0834C37.7799 22.0034 37.0333 22.7501 36.1133 22.7501H35.1133V33.4167H36.4466C36.8002 33.4167 37.1394 33.5572 37.3894 33.8072C37.6395 34.0573 37.7799 34.3964 37.7799 34.7501C37.7799 35.1037 37.6395 35.4428 37.3894 35.6929C37.1394 35.9429 36.8002 36.0834 36.4466 36.0834H12.4466C12.093 36.0834 11.7539 35.9429 11.5038 35.6929C11.2538 35.4428 11.1133 35.1037 11.1133 34.7501C11.1133 34.3964 11.2538 34.0573 11.5038 33.8072C11.7539 33.5572 12.093 33.4167 12.4466 33.4167H13.7799V22.7501H12.7799C11.8599 22.7501 11.1133 22.0034 11.1133 21.0834V19.1634C11.1133 18.4674 11.4733 17.8274 12.0546 17.4647L23.5519 11.0394C23.8297 10.9005 24.136 10.8281 24.4466 10.8281C24.7572 10.8281 25.0622 10.9005 25.3399 11.0394ZM32.4466 22.7501H16.4466V33.4167H20.4466V25.4167H23.1133V33.4167H25.7799V25.4167H28.4466V33.4167H32.4466V22.7501ZM24.4466 13.5741L13.7799 19.5741V20.0834H35.1133V19.5741L24.4466 13.5741ZM24.4466 16.0834C24.8002 16.0834 25.1394 16.2239 25.3894 16.4739C25.6395 16.724 25.7799 17.0631 25.7799 17.4167C25.7799 17.7703 25.6395 18.1095 25.3894 18.3595C25.1394 18.6096 24.8002 18.7501 24.4466 18.7501C24.093 18.7501 23.7539 18.6096 23.5038 18.3595C23.2538 18.1095 23.1133 17.7703 23.1133 17.4167C23.1133 17.0631 23.2538 16.724 23.5038 16.4739C23.7539 16.2239 24.093 16.0834 24.4466 16.0834Z" fill="#3C3A37"/>
</g>
<defs>
<clipPath id="clip0_2075_15289">
<rect width="32" height="32" fill="white" transform="translate(8.44727 8.08398)"/>
</clipPath>
</defs>
</svg>
